<svg width="32" height="32" fill="none" xmlns="http://www.w3.org/2000/svg"><defs><linearGradient id="prefix__a" x1="16" y1="25.06" x2="15.8" y2="3.42" gradientTransform="matrix(1 0 0 -1 0 34)" gradientUnits="userSpaceOnUse"><stop offset="0" stop-color="#393938"/><stop offset="1" stop-color="#171714"/></linearGradient><linearGradient id="prefix__b" x1="23.46" y1="16.98" x2="23.24" y2="10.78" gradientTransform="matrix(1 0 0 -1 0 34)" gradientUnits="userSpaceOnUse"><stop offset="0" stop-color="#869195"/><stop offset=".2" stop-color="#7c878b"/><stop offset=".54" stop-color="#626c6f"/><stop offset=".98" stop-color="#383f42"/><stop offset="1" stop-color="#363d3f"/></linearGradient><linearGradient id="prefix__c" x1="8.49" y1="17.86" x2="8.71" y2="11.65" gradientTransform="matrix(1 0 0 -1 0 34)" gradientUnits="userSpaceOnUse"><stop offset="0" stop-color="#869195"/><stop offset=".2" stop-color="#7c878b"/><stop offset=".54" stop-color="#626c6f"/><stop offset=".98" stop-color="#383f42"/><stop offset="1" stop-color="#363d3f"/></linearGradient><linearGradient id="prefix__d" x1="15.98" y1="25.26" x2="16.66" y2="5.98" gradientTransform="matrix(1 0 0 -1 0 34)" gradientUnits="userSpaceOnUse"><stop offset="0" stop-color="#cccdc9"/><stop offset=".18" stop-color="#c2c3bf"/><stop offset=".48" stop-color="#a6a7a3"/><stop offset=".88" stop-color="#797a76"/><stop offset="1" stop-color="#6a6a66"/></linearGradient><linearGradient id="prefix__e" x1="22.69" y1="23.78" x2="23.3" y2="6.58" gradientTransform="matrix(1 0 0 -1 0 34)" gradientUnits="userSpaceOnUse"><stop offset="0" stop-color="#cccdc9"/><stop offset=".18" stop-color="#c2c3bf"/><stop offset=".48" stop-color="#a6a7a3"/><stop offset=".88" stop-color="#797a76"/><stop offset="1" stop-color="#6a6a66"/></linearGradient><linearGradient id="prefix__f" x1="22.75" y1="23.82" x2="23.33" y2="7.4" gradientTransform="matrix(1 0 0 -1 0 34)" gradientUnits="userSpaceOnUse"><stop offset="0" stop-color="#cdcecb"/><stop offset=".19" stop-color="#c3c4c1"/><stop offset=".52" stop-color="#a7a8a5"/><stop offset=".94" stop-color="#7a7b78"/><stop offset="1" stop-color="#747471"/></linearGradient><linearGradient id="prefix__g" x1="22.82" y1="23.87" x2="23.37" y2="8.22" gradientTransform="matrix(1 0 0 -1 0 34)" gradientUnits="userSpaceOnUse"><stop offset="0" stop-color="#cfd0cc"/><stop offset=".21" stop-color="#c5c6c2"/><stop offset=".56" stop-color="#a9aaa6"/><stop offset="1" stop-color="#7f7f7b"/></linearGradient><linearGradient id="prefix__h" x1="22.88" y1="23.91" x2="23.4" y2="9.04" gradientTransform="matrix(1 0 0 -1 0 34)" gradientUnits="userSpaceOnUse"><stop offset="0" stop-color="#d0d1ce"/><stop offset=".23" stop-color="#c6c7c4"/><stop offset=".61" stop-color="#aaaba8"/><stop offset="1" stop-color="#898986"/></linearGradient><linearGradient id="prefix__i" x1="22.94" y1="23.95" x2="23.44" y2="9.85" gradientTransform="matrix(1 0 0 -1 0 34)" gradientUnits="userSpaceOnUse"><stop offset="0" stop-color="#d2d2cf"/><stop offset=".25" stop-color="#c8c8c5"/><stop offset=".68" stop-color="#acaca9"/><stop offset="1" stop-color="#939390"/></linearGradient><linearGradient id="prefix__j" x1="23" y1="24" x2="23.47" y2="10.65" gradientTransform="matrix(1 0 0 -1 0 34)" gradientUnits="userSpaceOnUse"><stop offset="0" stop-color="#d3d4d1"/><stop offset=".28" stop-color="#c9cac7"/><stop offset=".77" stop-color="#adaeab"/><stop offset="1" stop-color="#9e9e9b"/></linearGradient><linearGradient id="prefix__k" x1="23.06" y1="24.05" x2="23.51" y2="11.44" gradientTransform="matrix(1 0 0 -1 0 34)" gradientUnits="userSpaceOnUse"><stop offset="0" stop-color="#d5d5d2"/><stop offset=".32" stop-color="#cbcbc8"/><stop offset=".88" stop-color="#afafac"/><stop offset="1" stop-color="#a8a8a5"/></linearGradient><linearGradient id="prefix__l" x1="23.12" y1="24.13" x2="23.54" y2="12.21" gradientTransform="matrix(1 0 0 -1 0 34)" gradientUnits="userSpaceOnUse"><stop offset="0" stop-color="#d6d7d4"/><stop offset=".39" stop-color="#cccdca"/><stop offset="1" stop-color="#b3b3b0"/></linearGradient><linearGradient id="prefix__m" x1="23.17" y1="24.25" x2="23.57" y2="12.95" gradientTransform="matrix(1 0 0 -1 0 34)" gradientUnits="userSpaceOnUse"><stop offset="0" stop-color="#d8d8d5"/><stop offset=".48" stop-color="#cececb"/><stop offset="1" stop-color="#bdbdba"/></linearGradient><linearGradient id="prefix__n" x1="23.22" y1="24.36" x2="23.6" y2="13.67" gradientTransform="matrix(1 0 0 -1 0 34)" gradientUnits="userSpaceOnUse"><stop offset="0" stop-color="#d9d9d7"/><stop offset=".66" stop-color="#cfcfcd"/><stop offset="1" stop-color="#c7c7c5"/></linearGradient><linearGradient id="prefix__o" x1="23.27" y1="24.49" x2="23.63" y2="14.37" gradientTransform="matrix(1 0 0 -1 0 34)" gradientUnits="userSpaceOnUse"><stop offset="0" stop-color="#dbdbd8"/><stop offset="1" stop-color="#d2d2cf"/></linearGradient><linearGradient id="prefix__p" x1="9.31" y1="23.78" x2="8.7" y2="6.58" gradientTransform="matrix(1 0 0 -1 0 34)" gradientUnits="userSpaceOnUse"><stop offset="0" stop-color="#cccdc9"/><stop offset=".18" stop-color="#c2c3bf"/><stop offset=".48" stop-color="#a6a7a3"/><stop offset=".88" stop-color="#797a76"/><stop offset="1" stop-color="#6a6a66"/></linearGradient><linearGradient id="prefix__q" x1="9.25" y1="23.82" x2="8.67" y2="7.4" gradientTransform="matrix(1 0 0 -1 0 34)" gradientUnits="userSpaceOnUse"><stop offset="0" stop-color="#cdcecb"/><stop offset=".19" stop-color="#c3c4c1"/><stop offset=".52" stop-color="#a7a8a5"/><stop offset=".94" stop-color="#7a7b78"/><stop offset="1" stop-color="#747471"/></linearGradient><linearGradient id="prefix__r" x1="9.18" y1="23.87" x2="8.63" y2="8.22" gradientTransform="matrix(1 0 0 -1 0 34)" gradientUnits="userSpaceOnUse"><stop offset="0" stop-color="#cfd0cc"/><stop offset=".21" stop-color="#c5c6c2"/><stop offset=".56" stop-color="#a9aaa6"/><stop offset="1" stop-color="#7f7f7b"/></linearGradient><linearGradient id="prefix__s" x1="9.12" y1="23.91" x2="8.6" y2="9.04" gradientTransform="matrix(1 0 0 -1 0 34)" gradientUnits="userSpaceOnUse"><stop offset="0" stop-color="#d0d1ce"/><stop offset=".23" stop-color="#c6c7c4"/><stop offset=".61" stop-color="#aaaba8"/><stop offset="1" stop-color="#898986"/></linearGradient><linearGradient id="prefix__t" x1="9.06" y1="23.95" x2="8.56" y2="9.85" gradientTransform="matrix(1 0 0 -1 0 34)" gradientUnits="userSpaceOnUse"><stop offset="0" stop-color="#d2d2cf"/><stop offset=".25" stop-color="#c8c8c5"/><stop offset=".68" stop-color="#acaca9"/><stop offset="1" stop-color="#939390"/></linearGradient><linearGradient id="prefix__u" x1="9" y1="24" x2="8.52" y2="10.65" gradientTransform="matrix(1 0 0 -1 0 34)" gradientUnits="userSpaceOnUse"><stop offset="0" stop-color="#d3d4d1"/><stop offset=".28" stop-color="#c9cac7"/><stop offset=".77" stop-color="#adaeab"/><stop offset="1" stop-color="#9e9e9b"/></linearGradient><linearGradient id="prefix__v" x1="8.94" y1="24.05" x2="8.49" y2="11.44" gradientTransform="matrix(1 0 0 -1 0 34)" gradientUnits="userSpaceOnUse"><stop offset="0" stop-color="#d5d5d2"/><stop offset=".32" stop-color="#cbcbc8"/><stop offset=".88" stop-color="#afafac"/><stop offset="1" stop-color="#a8a8a5"/></linearGradient><linearGradient id="prefix__w" x1="8.88" y1="24.13" x2="8.46" y2="12.21" gradientTransform="matrix(1 0 0 -1 0 34)" gradientUnits="userSpaceOnUse"><stop offset="0" stop-color="#d6d7d4"/><stop offset=".39" stop-color="#cccdca"/><stop offset="1" stop-color="#b3b3b0"/></linearGradient><linearGradient id="prefix__x" x1="8.83" y1="24.25" x2="8.43" y2="12.95" gradientTransform="matrix(1 0 0 -1 0 34)" gradientUnits="userSpaceOnUse"><stop offset="0" stop-color="#d8d8d5"/><stop offset=".48" stop-color="#cececb"/><stop offset="1" stop-color="#bdbdba"/></linearGradient><linearGradient id="prefix__y" x1="8.78" y1="24.36" x2="8.4" y2="13.67" gradientTransform="matrix(1 0 0 -1 0 34)" gradientUnits="userSpaceOnUse"><stop offset="0" stop-color="#d9d9d7"/><stop offset=".66" stop-color="#cfcfcd"/><stop offset="1" stop-color="#c7c7c5"/></linearGradient><linearGradient id="prefix__z" x1="8.73" y1="24.49" x2="8.37" y2="14.37" gradientTransform="matrix(1 0 0 -1 0 34)" gradientUnits="userSpaceOnUse"><stop offset="0" stop-color="#dbdbd8"/><stop offset="1" stop-color="#d2d2cf"/></linearGradient><linearGradient id="prefix__B" x1="15.89" y1="26.71" x2="16.68" y2="4.12" gradientTransform="matrix(1 0 0 -1 0 34)" gradientUnits="userSpaceOnUse"><stop offset="0" stop-color="#cccdc9"/><stop offset=".18" stop-color="#c2c3bf"/><stop offset=".48" stop-color="#a6a7a3"/><stop offset=".88" stop-color="#797a76"/><stop offset="1" stop-color="#6a6a66"/></linearGradient><linearGradient id="prefix__C" x1="16" y1="29.38" x2="16" y2="25.62" gradientTransform="matrix(1 0 0 -1 0 34)" gradientUnits="userSpaceOnUse"><stop offset="0" stop-color="#393938"/><stop offset="1" stop-color="#333332"/></linearGradient><linearGradient id="prefix__D" x1="16" y1="29.06" x2="16" y2="25.81" gradientTransform="matrix(1 0 0 -1 0 34)" gradientUnits="userSpaceOnUse"><stop offset="0" stop-color="#848f93"/><stop offset="1" stop-color="#333332"/></linearGradient><radialGradient id="prefix__A" cx="-53.32" cy="68.81" fx="-53.32" fy="68.81" r="1" gradientTransform="rotate(-89.97 -53.211 -333.793) scale(7.43 -3.84)" gradientUnits="userSpaceOnUse"><stop offset="0" stop-color="#fff"/><stop offset="1" stop-color="#fff" stop-opacity="0"/></radialGradient><radialGradient id="prefix__E" cx="-80.26" cy="-151.52" fx="-80.26" fy="-151.52" r="1" gradientTransform="matrix(0 -1.41 -.2 0 -15.32 -106.51)" gradientUnits="userSpaceOnUse"><stop offset="0" stop-color="#fff" stop-opacity=".6"/><stop offset="1" stop-color="#fff" stop-opacity="0"/></radialGradient><radialGradient id="prefix__F" cx="-80.26" cy="-151.52" fx="-80.26" fy="-151.52" r="1" gradientTransform="matrix(0 -1.41 -.2 0 -13.67 -106.51)" gradientUnits="userSpaceOnUse"><stop offset="0" stop-color="#fff" stop-opacity=".6"/><stop offset="1" stop-color="#fff" stop-opacity="0"/></radialGradient></defs><path d="M25.04 9.23c0-5.32-3.88-8.08-9.04-8.08S6.96 3.91 6.96 9.23c0 2.58.54 5.22 1.29 7.42-.47 2.62-.65 3.85-.65 6.46 0 3.88 2.58 7.75 8.4 7.75s8.4-3.88 8.4-7.75c0-2.61-.17-3.84-.65-6.46.75-2.2 1.29-4.84 1.29-7.42z" fill="url(#prefix__a)"/><path d="M23.75 16.65s-1.24 4.12-1.32 6.74c-.08 2.62 1.55 2.15 1.62-.31.1-3.34-.3-6.43-.3-6.43z" fill="url(#prefix__b)"/><path d="M8.25 16.65s1.24 4.12 1.32 6.74c.08 2.62-1.59 2.18-1.66-.28-.1-3.34.34-6.46.34-6.46z" fill="url(#prefix__c)"/><path d="M16 1.79c-4.64 0-8.4 2.61-8.4 7.25 0 6.04 1.74 6.22 2.99 16.09.32 2.48 2.78 3.14 5.41 3.14s5.09-.66 5.41-3.14c1.25-9.86 2.99-10.05 2.99-16.09 0-4.64-3.76-7.25-8.4-7.25z" fill="url(#prefix__d)"/><path d="M23.38 5.95c.19.72.37 1.66.37 2.51 0 2.67-.27 4.29-.67 5.99-.4 1.7-.93 3.46-1.46 6.41-.08.45-.34 1.95-.2 2.24.16.31.38-.73.47-1.2.29-1.69.6-3.01.89-4.12.29-1.11.57-2.01.81-2.86.48-1.71.82-3.23.82-5.88 0-2.58-1.3-4.18-1.02-3.09z" fill="url(#prefix__e)"/><path d="M21.54 22.45c.13.33.35-.6.44-1.05.05-.25.09-.5.14-.75.23-1.18.46-2.17.68-3.03.01-.06.03-.11.04-.17.28-1.05.54-1.92.77-2.74.45-1.64.77-3.12.77-5.64 0-.46-.04-.9-.11-1.29-.29-1.65-1.03-2.51-.84-1.72.05.2.1.46.15.74.1.52.18 1.07.18 1.6 0 .66-.01 1.26-.05 1.82-.09 1.56-.3 2.73-.58 3.93-.17.76-.37 1.52-.58 2.4-.25 1.04-.52 2.24-.8 3.75-.08.44-.33 1.85-.21 2.15z" fill="url(#prefix__f)"/><path d="M21.66 21.81c.11.36.31-.47.4-.91.05-.24.1-.47.14-.71.23-1.12.45-2.06.66-2.89.01-.05.03-.11.04-.16.26-1 .51-1.83.72-2.63.42-1.57.72-3.01.72-5.41 0-.44-.04-.86-.1-1.24-.26-1.56-.93-2.38-.78-1.7.03.15.06.37.11.63.1.49.17 1.02.18 1.53 0 .62-.01 1.19-.04 1.74-.09 1.5-.28 2.63-.54 3.77-.16.73-.35 1.47-.54 2.3-.24 1.01-.5 2.15-.76 3.6-.08.44-.31 1.74-.21 2.06z" fill="url(#prefix__g)"/><path d="M21.79 21.17c.08.38.28-.34.37-.76.05-.22.1-.44.15-.67.22-1.06.43-1.95.64-2.75.01-.05.03-.1.04-.15.25-.95.48-1.74.68-2.51.4-1.51.67-2.9.67-5.18 0-.42-.03-.82-.09-1.18-.23-1.46-.82-2.25-.73-1.68.02.1.02.28.07.53.09.47.17.97.17 1.46 0 .58 0 1.13-.04 1.66-.08 1.43-.26 2.52-.49 3.61-.15.71-.32 1.42-.5 2.21-.22.97-.47 2.06-.72 3.44-.08.43-.29 1.64-.22 1.97z" fill="url(#prefix__h)"/><path d="M21.91 20.53c.06.4.24-.21.34-.61.05-.2.1-.42.15-.64.22-1 .42-1.85.62-2.61.01-.05.03-.1.04-.14.23-.89.45-1.65.64-2.39.37-1.44.62-2.79.62-4.94 0-.4-.03-.78-.08-1.13-.2-1.37-.77-2.11-.67-1.66 0 .05-.01.2.03.43.09.45.16.92.17 1.39.01.54 0 1.06-.03 1.59-.08 1.37-.24 2.41-.45 3.45-.14.69-.3 1.36-.46 2.11-.21.94-.44 1.97-.69 3.28-.08.42-.28 1.53-.23 1.89z" fill="url(#prefix__i)"/><path d="M22.03 19.88c.03.42.21-.09.31-.47.05-.19.1-.39.15-.6.21-.94.41-1.74.6-2.48.01-.05.02-.09.04-.14.22-.84.42-1.56.6-2.28.34-1.37.57-2.68.57-4.71 0-.38-.02-.74-.07-1.07-.17-1.28-.68-1.98-.61-1.63-.03 0-.05.11 0 .32.09.43.16.86.17 1.32.01.5 0 .99-.03 1.51-.07 1.31-.22 2.31-.41 3.29-.13.66-.27 1.31-.42 2.02-.2.9-.41 1.89-.65 3.12-.08.42-.26 1.43-.23 1.79z" fill="url(#prefix__j)"/><path d="M22.15 19.24c0 .44.17.04.28-.32.05-.17.1-.36.15-.57.21-.87.4-1.64.58-2.34l.03-.13c.2-.78.39-1.47.55-2.16.31-1.31.52-2.57.52-4.48 0-.35-.02-.69-.06-1.02-.14-1.18-.59-1.85-.55-1.61-.05-.06-.09.02-.05.22.09.4.15.81.17 1.26.01.47 0 .93-.02 1.43-.07 1.24-.2 2.2-.37 3.13-.11.64-.24 1.25-.38 1.92-.18.87-.38 1.8-.61 2.97-.08.41-.25 1.32-.24 1.71z" fill="url(#prefix__k)"/><path d="M22.27 18.6c-.02.46.13.17.25-.17.05-.15.1-.33.15-.53.2-.81.39-1.53.56-2.2l.03-.12c.19-.73.36-1.39.51-2.04.28-1.24.47-2.47.47-4.25 0-.33-.01-.65-.05-.97-.11-1.09-.5-1.72-.5-1.59-.06-.11-.13-.07-.09.12.08.38.15.76.17 1.19.02.43.01.86-.02 1.35-.06 1.18-.18 2.1-.33 2.97-.1.62-.22 1.2-.34 1.82-.17.83-.36 1.71-.58 2.81-.08.4-.23 1.21-.25 1.61z" fill="url(#prefix__l)"/><path d="M22.39 17.96c-.04.48.1.3.22-.02.05-.14.1-.3.15-.5.2-.75.37-1.43.54-2.07.01-.04.02-.08.03-.11.18-.68.34-1.3.47-1.93.25-1.17.42-2.36.42-4.01 0-.31 0-.61-.04-.91-.09-.99-.41-1.59-.44-1.56-.08-.17-.16-.15-.13.01.08.36.15.71.17 1.12.02.39.01.8-.01 1.28-.06 1.12-.16 1.99-.29 2.8-.09.59-.19 1.15-.3 1.73-.15.8-.33 1.63-.54 2.65-.08.4-.22 1.11-.26 1.52z" fill="url(#prefix__m)"/><path d="M22.52 17.31c-.07.5.06.43.19.12.05-.12.1-.27.15-.46.19-.69.36-1.32.52-1.93 0-.04.02-.07.03-.11.16-.62.31-1.21.43-1.81.22-1.11.37-2.25.37-3.78 0-.29 0-.57-.03-.86-.06-.9-.33-1.45-.38-1.54-.12-.21-.2-.24-.17-.09.08.34.14.66.16 1.05.02.35.02.73 0 1.2-.05 1.05-.14 1.88-.25 2.64-.08.57-.17 1.09-.26 1.63-.14.76-.3 1.54-.5 2.49-.08.39-.2 1.01-.26 1.44z" fill="url(#prefix__n)"/><path d="M22.64 16.67c-.09.52.02.55.15.27.05-.1.1-.25.16-.43.18-.63.35-1.22.5-1.79 0-.03.02-.07.03-.1.15-.57.28-1.12.38-1.69.2-1.04.32-2.14.33-3.55 0-.26 0-.53-.01-.81-.04-.8-.24-1.33-.33-1.52-.13-.27-.24-.33-.21-.2.07.32.14.61.16.98.02.31.02.67 0 1.12-.05.99-.12 1.78-.2 2.48-.07.55-.14 1.04-.22 1.53-.12.73-.28 1.45-.46 2.34-.08.39-.19.9-.27 1.34z" fill="url(#prefix__o)"/><path d="M23.65 6.88c.12.52.22.93.16 1.96-.08 1.67-.19 2.74-.35 3.76-.16 1.02-.38 1.98-.7 3.43-.16.72.06.73.28.03.18-.57.34-1.11.48-1.65.14-.54.27-1.09.37-1.67.2-1.15.3-2.43.27-4.06-.03-1.49-.57-2.01-.51-1.79z" fill="#dcdcda"/><path d="M8.62 5.95c-.19.72-.37 1.66-.37 2.51 0 2.67.27 4.29.67 5.99.4 1.7.93 3.46 1.46 6.41.08.45.34 1.95.2 2.24-.16.31-.38-.73-.47-1.2-.29-1.69-.6-3.01-.89-4.12-.29-1.11-.57-2.01-.81-2.86-.48-1.71-.82-3.23-.82-5.88 0-2.58 1.3-4.18 1.02-3.09z" fill="url(#prefix__p)"/><path d="M10.46 22.45c-.13.33-.35-.6-.44-1.05-.05-.25-.09-.5-.14-.75-.23-1.18-.46-2.17-.68-3.03-.01-.06-.03-.11-.04-.17-.28-1.05-.54-1.92-.77-2.74-.45-1.64-.77-3.12-.77-5.64 0-.46.04-.9.11-1.29.29-1.65 1.03-2.51.84-1.72-.05.2-.1.46-.15.74-.1.52-.18 1.07-.18 1.6 0 .66.01 1.26.05 1.82.09 1.56.3 2.73.58 3.93.17.76.37 1.52.58 2.4.25 1.04.52 2.24.8 3.75.08.44.33 1.85.21 2.15z" fill="url(#prefix__q)"/><path d="M10.33 21.81c-.11.36-.31-.47-.4-.91-.05-.24-.1-.47-.14-.71-.23-1.12-.45-2.06-.66-2.89-.01-.05-.03-.11-.04-.16-.26-1-.51-1.83-.72-2.63-.42-1.57-.71-3.01-.72-5.41 0-.44.04-.86.1-1.24.26-1.56.93-2.38.78-1.7-.03.15-.06.37-.11.63-.1.49-.17 1.02-.18 1.53 0 .62.01 1.19.04 1.74.09 1.5.28 2.63.54 3.77.16.73.35 1.47.54 2.3.24 1.01.5 2.15.76 3.6.08.44.31 1.74.21 2.06z" fill="url(#prefix__r)"/><path d="M10.21 21.17c-.08.38-.28-.34-.37-.76-.05-.22-.1-.44-.15-.67-.22-1.06-.43-1.95-.64-2.75-.01-.05-.03-.1-.04-.15-.25-.95-.48-1.74-.68-2.51-.4-1.51-.67-2.9-.67-5.18 0-.42.03-.82.09-1.18.23-1.46.82-2.25.73-1.68-.02.1-.02.28-.07.53-.09.47-.17.97-.17 1.46 0 .58 0 1.13.04 1.66.08 1.43.26 2.52.49 3.61.15.71.32 1.42.5 2.21.22.97.47 2.06.72 3.44.08.43.29 1.64.22 1.97z" fill="url(#prefix__s)"/><path d="M10.09 20.53c-.06.4-.24-.21-.34-.61-.05-.2-.1-.42-.15-.64-.22-1-.42-1.85-.62-2.61-.01-.05-.03-.1-.04-.14-.23-.89-.45-1.65-.64-2.39-.37-1.44-.62-2.79-.62-4.94 0-.4.03-.78.08-1.13.2-1.37.77-2.11.67-1.66 0 .05.01.2-.03.43-.09.45-.16.92-.17 1.39-.01.54 0 1.06.03 1.59.08 1.37.24 2.41.45 3.45.14.69.3 1.36.46 2.11.21.94.44 1.97.69 3.28.08.42.28 1.53.23 1.89z" fill="url(#prefix__t)"/><path d="M9.97 19.88c-.03.42-.21-.09-.31-.47-.05-.19-.1-.39-.15-.6-.21-.94-.41-1.74-.6-2.48a.737.737 0 00-.04-.14c-.22-.84-.42-1.56-.6-2.28-.34-1.37-.57-2.68-.57-4.71 0-.38.02-.74.07-1.07.17-1.28.68-1.98.61-1.63.03 0 .05.11 0 .32-.09.43-.16.86-.17 1.32-.01.5 0 .99.03 1.51.07 1.31.22 2.31.41 3.29.13.66.27 1.31.42 2.02.2.9.41 1.89.65 3.12.08.42.26 1.43.23 1.79z" fill="url(#prefix__u)"/><path d="M9.85 19.24c0 .44-.17.04-.28-.32-.05-.17-.1-.36-.15-.57-.21-.87-.4-1.64-.58-2.34l-.03-.13c-.2-.78-.39-1.47-.55-2.16-.31-1.31-.52-2.57-.52-4.48 0-.35.02-.69.06-1.02.14-1.18.59-1.85.55-1.61.05-.06.09.02.05.22-.09.4-.15.81-.17 1.26-.01.47 0 .93.02 1.43.07 1.24.2 2.2.37 3.13.11.64.24 1.25.38 1.92.18.87.38 1.8.61 2.97.08.41.25 1.32.24 1.71z" fill="url(#prefix__v)"/><path d="M9.73 18.6c.02.46-.13.17-.25-.17-.05-.15-.1-.33-.15-.53-.2-.81-.39-1.53-.56-2.2l-.03-.12c-.19-.73-.36-1.39-.51-2.04-.28-1.24-.47-2.47-.47-4.25 0-.33.01-.65.05-.97.11-1.09.5-1.72.5-1.59.06-.11.13-.07.09.12-.08.38-.15.76-.17 1.19-.02.43-.01.86.02 1.35.06 1.18.18 2.1.33 2.97.1.62.22 1.2.34 1.82.17.83.36 1.71.58 2.81.08.4.23 1.21.25 1.61z" fill="url(#prefix__w)"/><path d="M9.6 17.96c.04.48-.09.3-.22-.02-.05-.14-.1-.3-.15-.5-.2-.75-.37-1.43-.54-2.07-.01-.04-.02-.08-.03-.11-.18-.68-.34-1.3-.47-1.93-.25-1.17-.42-2.36-.42-4.01 0-.31 0-.61.04-.91.09-.99.41-1.59.44-1.56.08-.17.16-.15.13.01-.08.36-.15.71-.17 1.12-.02.39-.01.8.01 1.28.06 1.12.16 1.99.29 2.8.09.59.19 1.15.3 1.73.15.8.33 1.63.54 2.65.08.4.22 1.11.26 1.52z" fill="url(#prefix__x)"/><path d="M9.48 17.31c.07.5-.06.43-.19.12-.05-.12-.1-.27-.15-.46-.19-.69-.36-1.32-.52-1.93 0-.04-.02-.07-.03-.11-.16-.62-.31-1.21-.43-1.81a18.44 18.44 0 01-.37-3.78c0-.29 0-.57.03-.86.06-.9.33-1.45.38-1.54.12-.21.2-.24.17-.09-.08.34-.14.66-.16 1.05-.02.35-.02.73 0 1.2.05 1.05.14 1.88.25 2.64.08.57.17 1.09.26 1.63.14.76.3 1.54.5 2.49.08.39.2 1.01.26 1.44z" fill="url(#prefix__y)"/><path d="M9.36 16.67c.09.52-.02.55-.16.27-.05-.1-.1-.25-.16-.43-.18-.63-.35-1.22-.5-1.79 0-.03-.02-.07-.03-.1-.15-.57-.28-1.12-.38-1.69-.2-1.04-.32-2.14-.33-3.55 0-.26 0-.53.01-.81.04-.8.24-1.33.33-1.52.13-.27.24-.33.21-.2-.07.32-.14.61-.16.98-.02.31-.02.67 0 1.12.05.99.12 1.78.2 2.48.07.55.14 1.04.22 1.53.12.73.28 1.45.46 2.34.08.39.19.9.27 1.34z" fill="url(#prefix__z)"/><path d="M8.35 6.88c-.12.52-.22.93-.16 1.96.08 1.67.19 2.74.35 3.76.16 1.02.38 1.98.7 3.43.16.72-.06.73-.28.03-.18-.57-.34-1.11-.48-1.65-.14-.54-.27-1.09-.37-1.67-.2-1.15-.3-2.43-.27-4.06.03-1.49.57-2.01.51-1.79z" fill="#dcdcda"/><path d="M16 17.29c2.12 0 3.84-3.47 3.84-7.75S18.12 1.79 16 1.79s-3.84 3.47-3.84 7.75 1.72 7.75 3.84 7.75z" fill="url(#prefix__A)"/><path d="M16 17.29c-1.07 0-1.94-.87-1.94-1.94V5.67c0-1.07.87-1.94 1.94-1.94s1.94.87 1.94 1.94v9.69c0 1.07-.87 1.94-1.94 1.94z" fill="url(#prefix__B)"/><path d="M16 16.48c-.09 0-.16-.07-.16-.16V1.47c0-.09.07-.16.16-.16s.16.07.16.16v14.85c0 .09-.07.16-.16.16z" fill="#393938"/><path d="M16 9.54c-.71 0-1.29-.58-1.29-1.29V5.67c0-.71.58-1.29 1.29-1.29s1.29.58 1.29 1.29v2.58c0 .71-.58 1.29-1.29 1.29z" fill="url(#prefix__C)"/><path d="M16.05 9.19h-.09c-.5 0-.91-.41-.91-.91V5.63c0-.5.41-.91.91-.91h.09c.5 0 .91.41.91.91v2.65c0 .5-.41.91-.91.91z" fill="url(#prefix__D)"/><path d="M15.21 8.43c.13 0 .24-.7.24-1.57s-.11-1.57-.24-1.57-.24.7-.24 1.57.11 1.57.24 1.57z" fill="url(#prefix__E)"/><path d="M16.86 8.43c.13 0 .24-.7.24-1.57s-.11-1.57-.24-1.57-.24.7-.24 1.57.11 1.57.24 1.57z" fill="url(#prefix__F)"/></svg>