<svg width="24" height="24" viewBox="0 0 24 24" fill="none" xmlns="http://www.w3.org/2000/svg">
<path opacity="0.5" d="M3.464 20.536C4.93 22 7.286 22 12 22C16.714 22 19.071 22 20.535 20.535C22 19.072 22 16.714 22 12C22 7.286 22 4.929 20.535 3.464C19.072 2 16.714 2 12 2C7.286 2 4.929 2 3.464 3.464C2 4.93 2 7.286 2 12C2 16.714 2 19.072 3.464 20.536Z" fill="#0D99FF"/>
<path d="M17.3337 14C17.3337 16.8366 15.5883 18.0813 14.2397 18.5006C14.1895 18.5172 14.1359 18.52 14.0843 18.5086C13.8917 18.4626 13.7963 18.2066 13.935 18.008C14.5217 17.164 15.2003 15.8773 15.2003 14.6666C15.2003 13.3666 14.1043 11.8313 13.2483 10.884C13.053 10.668 12.7117 10.8106 12.701 11.1026C12.6657 12.0693 12.513 13.3613 11.8557 14.3746C11.8324 14.4125 11.8002 14.4441 11.762 14.4669C11.7238 14.4896 11.6807 14.5027 11.6363 14.505C11.5919 14.5074 11.5476 14.4989 11.5072 14.4804C11.4668 14.4619 11.4315 14.4338 11.4043 14.3986C11.199 14.1386 10.9937 13.818 10.7883 13.564C10.6777 13.428 10.4777 13.426 10.3503 13.5466C9.85233 14.018 9.15566 14.7526 9.15566 15.6666C9.15566 16.2866 9.39566 16.9366 9.66699 17.46C9.80166 17.72 9.59833 18.0273 9.34566 17.9733C9.31733 17.9667 9.28998 17.9564 9.26433 17.9426C8.07566 17.32 6.66699 16.056 6.66699 14C6.66699 11.9026 9.54033 8.99664 10.6377 6.2513C10.811 5.81797 11.3443 5.61464 11.7157 5.8973C13.9623 7.6093 17.3337 10.9186 17.3337 14Z" fill="#FFFFFF"/>
<path opacity="0.3" d="M9.15527 15.6666C9.15527 16.2866 9.39527 16.9367 9.66661 17.46C9.80127 17.72 9.59794 18.028 9.34527 17.9733C9.66661 18.3333 11.7839 18.6113 14.0839 18.5087C13.8913 18.4627 13.7959 18.2066 13.9346 18.008C14.5213 17.1646 15.1999 15.8773 15.1999 14.6666C15.1999 13.3666 14.1039 11.8313 13.2479 10.884C13.0526 10.668 12.7113 10.8106 12.7006 11.1026C12.6653 12.0693 12.5126 13.3613 11.8553 14.3746C11.832 14.4125 11.7999 14.4442 11.7616 14.4669C11.7234 14.4896 11.6803 14.5027 11.6359 14.505C11.5915 14.5074 11.5472 14.4989 11.5068 14.4804C11.4664 14.4619 11.4311 14.4338 11.4039 14.3986C11.1986 14.1386 10.9933 13.818 10.7879 13.5646C10.6773 13.428 10.4773 13.426 10.3499 13.5466C9.85194 14.018 9.15527 14.7526 9.15527 15.6666Z" fill="#FFFFFF"/>
</svg>
