<svg width="16" height="16" viewBox="0 0 16 16" fill="none" xmlns="http://www.w3.org/2000/svg">
<path d="M11.9997 2C12.7069 2 13.3852 2.28095 13.8853 2.78105C14.3854 3.28115 14.6663 3.95942 14.6663 4.66667V10C14.6663 10.7072 14.3854 11.3855 13.8853 11.8856C13.3852 12.3857 12.7069 12.6667 11.9997 12.6667H8.85034L5.67567 14.5713C5.58007 14.6287 5.4716 14.6612 5.36019 14.6658C5.24878 14.6704 5.138 14.647 5.03798 14.5977C4.93796 14.5484 4.8519 14.4749 4.78767 14.3837C4.72344 14.2926 4.6831 14.1868 4.67034 14.076L4.66634 14V12.6667H3.99967C3.31551 12.6667 2.65752 12.4037 2.1618 11.9322C1.66608 11.4607 1.37055 10.8166 1.33634 10.1333L1.33301 10V4.66667C1.33301 3.95942 1.61396 3.28115 2.11406 2.78105C2.61415 2.28095 3.29243 2 3.99967 2H11.9997ZM9.33301 8H5.33301C5.1562 8 4.98663 8.07024 4.8616 8.19526C4.73658 8.32029 4.66634 8.48986 4.66634 8.66667C4.66634 8.84348 4.73658 9.01305 4.8616 9.13807C4.98663 9.2631 5.1562 9.33333 5.33301 9.33333H9.33301C9.50982 9.33333 9.67939 9.2631 9.80441 9.13807C9.92944 9.01305 9.99967 8.84348 9.99967 8.66667C9.99967 8.48986 9.92944 8.32029 9.80441 8.19526C9.67939 8.07024 9.50982 8 9.33301 8ZM10.6663 5.33333H5.33301C5.1562 5.33333 4.98663 5.40357 4.8616 5.5286C4.73658 5.65362 4.66634 5.82319 4.66634 6C4.66634 6.17681 4.73658 6.34638 4.8616 6.4714C4.98663 6.59643 5.1562 6.66667 5.33301 6.66667H10.6663C10.8432 6.66667 11.0127 6.59643 11.1377 6.4714C11.2628 6.34638 11.333 6.17681 11.333 6C11.333 5.82319 11.2628 5.65362 11.1377 5.5286C11.0127 5.40357 10.8432 5.33333 10.6663 5.33333Z" fill="#FFFFFF"/>
</svg>
