<svg width="16" height="16" viewBox="0 0 16 16" fill="none" xmlns="http://www.w3.org/2000/svg">
<path d="M8 5.5C8.53043 5.5 9.03914 5.28929 9.41421 4.91421C9.78929 4.53914 10 4.03043 10 3.5C10 2.96957 9.78929 2.46086 9.41421 2.08579C9.03914 1.71071 8.53043 1.5 8 1.5C7.46957 1.5 6.96086 1.71071 6.58579 2.08579C6.21071 2.46086 6 2.96957 6 3.5C6 4.03043 6.21071 4.53914 6.58579 4.91421C6.96086 5.28929 7.46957 5.5 8 5.5ZM5 3.75C5 3.97981 4.95474 4.20738 4.86679 4.4197C4.77884 4.63202 4.64994 4.82493 4.48744 4.98744C4.32493 5.14994 4.13202 5.27884 3.9197 5.36679C3.70738 5.45474 3.47981 5.5 3.25 5.5C3.02019 5.5 2.79262 5.45474 2.5803 5.36679C2.36798 5.27884 2.17507 5.14994 2.01256 4.98744C1.85006 4.82493 1.72116 4.63202 1.63321 4.4197C1.54527 4.20738 1.5 3.97981 1.5 3.75C1.5 3.28587 1.68437 2.84075 2.01256 2.51256C2.34075 2.18437 2.78587 2 3.25 2C3.71413 2 4.15925 2.18437 4.48744 2.51256C4.81563 2.84075 5 3.28587 5 3.75ZM14.5 3.75C14.5 3.97981 14.4547 4.20738 14.3668 4.4197C14.2788 4.63202 14.1499 4.82493 13.9874 4.98744C13.8249 5.14994 13.632 5.27884 13.4197 5.36679C13.2074 5.45474 12.9798 5.5 12.75 5.5C12.5202 5.5 12.2926 5.45474 12.0803 5.36679C11.868 5.27884 11.6751 5.14994 11.5126 4.98744C11.3501 4.82493 11.2212 4.63202 11.1332 4.4197C11.0453 4.20738 11 3.97981 11 3.75C11 3.28587 11.1844 2.84075 11.5126 2.51256C11.8408 2.18437 12.2859 2 12.75 2C13.2141 2 13.6592 2.18437 13.9874 2.51256C14.3156 2.84075 14.5 3.28587 14.5 3.75ZM4.6885 6.5C4.40387 6.85436 4.24913 7.29548 4.25 7.75V11.5C4.25 12.1175 4.399 12.7 4.6635 13.2135C4.28243 13.4139 3.85608 13.5124 3.42574 13.4996C2.99539 13.4869 2.57565 13.3631 2.20715 13.1405C1.83866 12.9179 1.53391 12.6038 1.32242 12.2288C1.11093 11.8538 0.999871 11.4305 1 11V7.75C1 7.41848 1.1317 7.10054 1.36612 6.86612C1.60054 6.6317 1.91848 6.5 2.25 6.5H4.6885ZM11.3365 13.2135C11.6085 12.6833 11.7503 12.0959 11.75 11.5V7.75C11.75 7.277 11.586 6.8425 11.3115 6.5H13.75C14.0815 6.5 14.3995 6.6317 14.6339 6.86612C14.8683 7.10054 15 7.41848 15 7.75V11C15.0001 11.4305 14.8891 11.8538 14.6776 12.2288C14.4661 12.6038 14.1613 12.9179 13.7928 13.1405C13.4244 13.3631 13.0046 13.4869 12.5743 13.4996C12.1439 13.5124 11.7176 13.4139 11.3365 13.2135ZM6.25 6.5C5.91848 6.5 5.60054 6.6317 5.36612 6.86612C5.1317 7.10054 5 7.41848 5 7.75V11.5C5 12.2956 5.31607 13.0587 5.87868 13.6213C6.44129 14.1839 7.20435 14.5 8 14.5C8.79565 14.5 9.55871 14.1839 10.1213 13.6213C10.6839 13.0587 11 12.2956 11 11.5V7.75C11 7.41848 10.8683 7.10054 10.6339 6.86612C10.3995 6.6317 10.0815 6.5 9.75 6.5H6.25Z" fill="#FFFFFF"/>
</svg>
