<svg width="16" height="16" viewBox="0 0 16 16" fill="none" xmlns="http://www.w3.org/2000/svg">
<path d="M2.86426 8.62944C3.21092 8.61344 3.50426 8.4801 3.74426 8.22944C3.98426 7.97877 4.10692 7.6801 4.10692 7.33344C4.10692 7.6801 4.22426 7.97877 4.46426 8.22944C4.70426 8.4801 4.99759 8.61344 5.34426 8.62944C4.99759 8.64544 4.70426 8.77877 4.46426 9.02944C4.34823 9.14761 4.25687 9.28769 4.19552 9.44152C4.13417 9.59535 4.10406 9.75985 4.10692 9.92544C4.10692 9.57877 3.98959 9.2801 3.74426 9.02944C3.50426 8.77877 3.21092 8.64544 2.86426 8.62944ZM4.10692 4.78944C4.77892 4.75744 5.34959 4.4961 5.81892 4.00544C6.28826 3.51477 6.52292 2.93344 6.52292 2.2561C6.52292 2.93344 6.75759 3.51477 7.22692 4.00544C7.69626 4.4961 8.26693 4.7521 8.94426 4.78944C8.50159 4.81077 8.09626 4.93344 7.72292 5.1681C7.35492 5.39744 7.06159 5.70677 6.84292 6.09077C6.62959 6.47477 6.52292 6.88544 6.52292 7.33344C6.52292 6.6561 6.28826 6.06944 5.81892 5.57877C5.34959 5.08277 4.77892 4.82144 4.10692 4.78944ZM5.87759 10.5334C6.38426 10.5121 6.81626 10.3148 7.16826 9.94677C7.52026 9.57877 7.69626 9.14144 7.69626 8.62944C7.69626 9.14144 7.87226 9.57877 8.22426 9.94677C8.57626 10.3148 9.00292 10.5121 9.50959 10.5334C9.00292 10.5548 8.57626 10.7521 8.22426 11.1201C7.87226 11.4881 7.69626 11.9254 7.69626 12.4374C7.69626 11.9254 7.52026 11.4881 7.16826 11.1201C6.83193 10.7624 6.36822 10.5516 5.87759 10.5334ZM9.50959 8.00544C10.0163 7.9841 10.4429 7.78677 10.7949 7.41877C11.1469 7.05077 11.3176 6.61344 11.3176 6.0961C11.3176 6.6081 11.4936 7.04544 11.8456 7.41344C12.1976 7.78144 12.6296 7.97877 13.1363 8.0001C12.6296 8.02144 12.1976 8.21877 11.8456 8.58677C11.4936 8.95477 11.3176 9.3921 11.3176 9.9041C11.3176 9.3921 11.1416 8.95477 10.7949 8.58677C10.4429 8.2241 10.0163 8.02677 9.50959 8.00544Z" fill="#FFFFFF"/>
</svg>
